:SAMPLES-PER-SECOND 30
:FULLY-SPECIFIED
:DEGREES
195
root  -9.51525 33.5068 75.5542 -153.699 39.5395 -152.413
RightUpLeg  -14.2221 -15.1076 -4.79617
RightLeg  49.1603 19.338 21.5706
RightFoot  -17.0403 0.848194 17.9269
RightToes  -5.82094e-011 -1.98785e-016 -5.10186e-018
Spine  25.9857 6.81783 -31.5833
Spine1  5.56381 -8.21732 23.6686
HEad  11.8876 -39.5504 16.9719
LeftShoulder1  2.68995 -14.8064 -7.051
LeftArm  35.6211 -34.7135 -83.0595
LeftForeArm  163.771 -81.9987 -105.317
LeftHand  -0.232361 -2.05775 3.8932
RightShoulder  4.253 9.91844 25.6159
RightArm  8.68653 -11.1708 31.3888
RightForeArm  33.1385 26.2062 3.86382
RightHand  -1.76408 12.1722 -12.0067
LeftUpLeg  -30.9538 15.4726 17.0139
LeftLeg  75.2415 1.11572 6.24491
LeftFoot  -25.8859 -1.34945 -13.079
LeftToes  -8.4584e-011 5.90861e-011 8.40072e-012
196
root  -9.18449 32.312 75.9765 -161.921 38.4921 -158.906
RightUpLeg  -12.9688 -4.71279 -4.64601
RightLeg  52.7533 5.99242 8.44582
RightFoot  -27.7665 3.24695 23.6012
RightToes  -5.82094e-011 -1.98785e-016 -5.10186e-018
Spine  23.8523 5.69675 -34.1804
Spine1  7.62007 -10.2343 23.3625
HEad  12.9329 -38.2388 16.1285
LeftShoulder1  2.8812 -15.1865 -7.85738
LeftArm  36.7221 -36.3483 -84.1282
LeftForeArm  161.576 -82.1625 -101.442
LeftHand  -0.341838 -1.23647 6.18785
RightShoulder  3.98377 8.75381 26.4874
RightArm  6.69668 -15.5055 33.7772
RightForeArm  33.3848 27.2824 4.08044
RightHand  -1.98841 12.123 -13.4927
LeftUpLeg  -24.1732 11.6122 14.5895
LeftLeg  73.9866 0.0738219 1.42142
LeftFoot  -42.1538 -2.29237 -9.11468
LeftToes  -8.4584e-011 5.90861e-011 8.40072e-012
197
root  -8.98246 31.9046 75.8659 -163.902 30.6372 -161.852
RightUpLeg  -9.88496 -0.399208 -1.9795
RightLeg  51.3509 -0.367217 -0.882981
RightFoot  -32.9786 5.12357 27.6057
RightToes  -5.82094e-011 -1.98785e-016 -5.10186e-018
Spine  20.5488 2.53371 -33.6087
Spine1  10.7655 -14.2476 29.0028
HEad  11.0239 -39.9826 18.1112
LeftShoulder1  3.46261 -15.5049 -10.9668
LeftArm  40.8046 -38.5083 -84.8555
LeftForeArm  147.573 -82.2958 -87.9206
LeftHand  -0.234767 -1.99764 4.00259
RightShoulder  3.85252 7.52584 28.9839
RightArm  5.89017 -19.8316 33.5433
RightForeArm  31.4443 27.0903 3.9742
RightHand  -2.36128 12.5989 -15.5204
LeftUpLeg  -27.644 9.5655 14.1692
LeftLeg  76.5266 -0.0764471 0.701648
LeftFoot  -41.9182 -2.10092 -8.59342
LeftToes  -8.4584e-011 5.90861e-011 8.40072e-012
198
root  -8.9587 31.3965 76.0281 -166.685 26.2938 -162.678
RightUpLeg  -7.27693 -5.93627 -2.60011
RightLeg  53.4212 1.1063 1.20779
RightFoot  -35.7828 5.79318 27.3895
RightToes  -5.82094e-011 -1.98785e-016 -5.10186e-018
Spine  21.7186 2.05846 -32.9654
Spine1  9.8285 -15.4708 32.0204
HEad  13.0504 -42.4587 18.6818
LeftShoulder1  4.0646 -15.697 -14.2381
LeftArm  43.1067 -36.5131 -83.2235
LeftForeArm  129.628 -81.8687 -72.6906
LeftHand  -0.392475 0.719724 9.76
RightShoulder  4.10912 7.44885 31.6126
RightArm  6.3075 -20.9222 33.065
RightForeArm  30.8065 20.4209 4.25942
RightHand  -2.71116 12.7914 -17.554
LeftUpLeg  -30.167 10.4209 15.7025
LeftLeg  82.5905 -0.610001 -3.30351
LeftFoot  -37.4706 -1.47355 -7.2942
LeftToes  -8.4584e-011 5.90861e-011 8.40072e-012
199
root  -9.14608 31.641 75.9981 -168.973 28.5394 -161.062
RightUpLeg  -4.72719 -7.20549 -3.43682
RightLeg  53.5079 2.57672 3.33274
RightFoot  -31.9537 4.53078 25.7057
RightToes  -5.82094e-011 -1.98785e-016 -5.10186e-018
Spine  21.0991 2.8007 -31.4978
Spine1  11.3291 -14.1174 30.2954
HEad  14.7647 -43.3405 19.6728
LeftShoulder1  3.74825 -15.3635 -12.8042
LeftArm  41.9767 -33.2697 -82.3497
LeftForeArm  115.554 -81.0088 -60.1467
LeftHand  -0.336307 2.04173 11.4888
RightShoulder  4.44283 8.38129 31.4804
RightArm  -3.78918 -20.3111 35.6253
RightForeArm  41.8276 10.2338 8.58759
RightHand  -2.72838 12.669 -17.7437
LeftUpLeg  -26.3148 15.0129 18.2397
LeftLeg  82.8379 -0.846695 -6.06523
LeftFoot  -34.6026 -0.931452 -5.56744
LeftToes  -8.4584e-011 5.90861e-011 8.40072e-012
200
root  -9.39107 32.1593 75.5961 -169.799 30.6557 -160.5
RightUpLeg  -3.68485 -7.07102 -5.15987
RightLeg  52.5572 4.45468 5.85092
RightFoot  -25.6349 3.22972 26.9798
RightToes  -5.82094e-011 -1.98785e-016 -5.10186e-018
Spine  19.5362 3.16912 -31.4361
Spine1  12.1587 -13.4881 29.7906
HEad  17.3612 -44.0006 19.0753
LeftShoulder1  3.63767 -14.8815 -12.7225
LeftArm  42.4033 -32.3305 -80.8837
LeftForeArm  104.354 -79.6898 -48.9204
LeftHand  -0.388991 0.679185 9.56307
RightShoulder  4.30146 8.20951 30.8034
RightArm  -5.73071 -20.939 37.2421
RightForeArm  49.3721 8.07441 9.28178
RightHand  -1.87284 12.7953 -12.2922
LeftUpLeg  -21.7484 15.0003 18.1447
LeftLeg  78.9436 -1.18708 -5.84187
LeftFoot  -35.6812 -0.985967 -5.55778
LeftToes  -8.4584e-011 5.90861e-011 8.40072e-012
201
root  -9.68597 32.641 75.0436 -169.474 31.3791 -160.139
RightUpLeg  -4.2079 -6.27481 -5.82195
RightLeg  51.8621 4.52454 5.79735
RightFoot  -17.936 1.68192 30.2795
RightToes  -5.82094e-011 -1.98785e-016 -5.10186e-018
Spine  19.046 2.91744 -31.3425
Spine1  10.7812 -13.6655 31.2191
HEad  20.2631 -44.412 17.0742
LeftShoulder1  3.54715 -14.6286 -12.4574
LeftArm  43.2715 -31.5517 -80.7447
LeftForeArm  97.0225 -78.2798 -41.1908
LeftHand  -0.365404 0.186306 8.20686
RightShoulder  3.95338 7.55257 29.8365
RightArm  3.15486 -23.1453 38.039
RightForeArm  45.4136 12.1284 8.01992
RightHand  -1.23214 12.6532 -8.33466
LeftUpLeg  -19.0568 11.8902 16.1342
LeftLeg  74.6425 -0.794312 -2.19239
LeftFoot  -37.3092 -1.32155 -6.70943
LeftToes  -8.4584e-011 5.90861e-011 8.40072e-012
202
root  -10.0204 33.178 74.4524 -168.937 33.6694 -159.431
RightUpLeg  -6.20216 -3.23245 -5.87115
RightLeg  52.4535 2.44871 3.02446
RightFoot  -8.74833 -0.678618 28.0339
RightToes  -5.82094e-011 -1.98785e-016 -5.10186e-018
Spine  18.4167 2.27814 -30.5238
Spine1  10.138 -13.6352 30.2866
HEad  20.8278 -43.1149 16.2067
LeftShoulder1  3.04456 -13.6378 -10.4929
LeftArm  43.5588 -31.3707 -81.1023
LeftForeArm  93.8972 -77.5341 -38.1773
LeftHand  -0.350326 -0.602436 6.89839
RightShoulder  3.84321 7.46342 29.1062
RightArm  12.1469 -24.385 38.5338
RightForeArm  36.7542 15.3141 6.41214
RightHand  -1.21857 11.9204 -8.55137
LeftUpLeg  -15.6289 11.8507 14.5849
LeftLeg  69.7999 -0.0487215 0.762189
LeftFoot  -38.1952 -1.43654 -6.98384
LeftToes  -8.4584e-011 5.90861e-011 8.40072e-012
203
root  -10.3334 33.713 73.8609 -168.33 36.5714 -158.954
RightUpLeg  -9.30447 -0.277477 -6.13071
RightLeg  54.2324 0.812071 0.814046
RightFoot  -0.742871 -2.14988 22.8875
RightToes  -5.82094e-011 -1.98785e-016 -5.10186e-018
Spine  18.1724 2.18404 -30.9435
Spine1  9.08156 -13.711 30.5917
HEad  20.2909 -41.1531 15.5895
LeftShoulder1  2.89293 -13.304 -9.87894
LeftArm  42.7964 -31.7056 -80.1344
LeftForeArm  92.9875 -77.2077 -36.9487
LeftHand  -0.345835 -1.22039 6.21298
RightShoulder  3.83019 7.60965 28.5078
RightArm  15.3941 -24.3206 38.1698
RightForeArm  33.1777 16.3027 5.80277
RightHand  -1.44711 11.9377 -10.0653
LeftUpLeg  -12.1155 13.5294 13.1877
LeftLeg  64.6148 0.749962 2.41707
LeftFoot  -38.6094 -1.35888 -6.56098
LeftToes  -8.4584e-011 5.90861e-011 8.40072e-012
204
root  -10.5899 34.3117 73.1731 -167.907 38.879 -158.987
RightUpLeg  -11.8924 0.660709 -6.71371
RightLeg  55.1179 -0.663207 -1.44359
RightFoot  2.81814 -2.33719 18.6482
RightToes  -5.82094e-011 -1.98785e-016 -5.10186e-018
Spine  17.9645 2.18583 -32.3581
Spine1  8.51616 -14.2282 31.7664
HEad  18.7348 -40.2926 16.2354
LeftShoulder1  2.92425 -13.5048 -9.85371
LeftArm  41.5708 -32.3194 -79.1258
LeftForeArm  90.0406 -76.4038 -34.3993
LeftHand  -0.353486 -1.25166 6.32647
RightShoulder  3.83559 7.57191 28.6802
RightArm  16.97 -23.4534 37.2757
RightForeArm  30.1452 17.1458 5.2912
RightHand  -1.55367 11.4764 -11.0485
LeftUpLeg  -8.18076 15.3967 11.5741
LeftLeg  57.9975 1.83933 3.74025
LeftFoot  -38.9714 -1.14675 -5.62882
LeftToes  -8.4584e-011 5.90861e-011 8.40072e-012
205
root  -10.8864 34.9967 72.215 -166.499 40.8623 -158.549
RightUpLeg  -15.2224 -0.356172 -6.69121
RightLeg  55.9307 -1.65225 -3.05803
RightFoot  -1.16917 -1.56487 17.3546
RightToes  -5.82094e-011 -1.98785e-016 -5.10186e-018
Spine  17.5403 1.5155 -32.6986
Spine1  7.88604 -14.8179 32.8931
HEad  17.1309 -40.6307 16.3848
LeftShoulder1  2.97902 -13.353 -10.3915
LeftArm  40.4186 -32.4518 -78.0154
LeftForeArm  85.7109 -75.1985 -31.2389
LeftHand  -0.368912 -1.7076 6.21107
RightShoulder  3.80719 7.47827 28.7145
RightArm  17.9528 -23.0147 36.6607
RightForeArm  26.431 18.0464 4.79138
RightHand  -1.63309 11.0035 -11.8962
LeftUpLeg  -3.6391 17.7347 10.145
LeftLeg  48.7845 3.00343 4.11508
LeftFoot  -39.339 -0.380165 -2.4824
LeftToes  -8.4584e-011 5.90861e-011 8.40072e-012
206
root  -11.1359 35.5699 71.1384 -164.582 43.33 -158.279
RightUpLeg  -19.5141 -2.42271 -6.23747
RightLeg  56.2544 -2.10245 -3.82287
RightFoot  -5.12469 -0.924978 16.3075
RightToes  -5.82094e-011 -1.98785e-016 -5.10186e-018
Spine  16.7341 0.509979 -32.6408
Spine1  7.04123 -15.1755 33.0298
HEad  15.4887 -40.9975 16.2437
LeftShoulder1  3.04174 -13.013 -11.2151
LeftArm  38.6886 -31.347 -76.7539
LeftForeArm  82.6682 -73.9088 -28.367
LeftHand  -0.347942 -2.08584 5.59669
RightShoulder  3.61438 7.14517 27.9744
RightArm  17.0334 -22.595 37.2523
RightForeArm  24.6387 17.9494 4.91687
RightHand  -1.80012 10.9712 -13.0938
LeftUpLeg  0.897093 20.9019 8.17433
LeftLeg  38.379 4.27622 4.0219
LeftFoot  -39.0604 0.0473114 -0.765566
LeftToes  -8.4584e-011 5.90861e-011 8.40072e-012
